<svg xmlns="http://www.w3.org/2000/svg" width="1024" height="1024" viewBox="0 0 1024 1024"><rect width="1024" height="1024" fill="#123e35"/><g fill="none" stroke="#527a65" stroke-width="3" opacity=".45"><path d="M-60 240Q300 10 550 230T1100 120M-60 285Q300 55 550 275T1100 165M-60 330Q300 100 550 320T1100 210M-60 765Q300 535 550 755T1100 645M-60 810Q300 580 550 800T1100 690"/></g><path d="m270 345 163-65 158 65 163-65v399l-163 65-158-65-163 65z" fill="#f4f3e9"/><path d="M433 280v399m158-334v399" stroke="#cbd5c6" stroke-width="5"/><path d="M623 306c-211 113 68 190-132 288-87 43-78 80-80 116" fill="none" stroke="#368e91" stroke-width="32" stroke-linecap="round"/><circle cx="540" cy="443" r="51" fill="#123e35"/><circle cx="540" cy="443" r="20" fill="#e3be75"/></svg>
